<svg width="115" height="35" viewBox="0 0 115 35" fill="none" xmlns="http://www.w3.org/2000/svg">
<path d="M74.08 29L83.58 32L91.58 24L101.58 31L112.08 29L107.58 14.5L91.58 19.5L82.58 14.5L73.08 16L74.08 29Z" fill="#F1A501"/>
<path d="M0 24.064V21.902L6.118 20.798V23.788C6.14867 25.4133 6.56267 26.64 7.36 27.468C8.188 28.2653 9.27667 28.664 10.626 28.664C11.9447 28.664 12.9873 28.2347 13.754 27.376C14.5513 26.5173 14.95 25.3673 14.95 23.926V1.38598H21.298V23.926C21.298 26.9313 20.3013 29.4767 18.308 31.562C16.3147 33.6473 13.7693 34.69 10.672 34.69C7.452 34.69 4.86067 33.724 2.898 31.792C0.966 29.8293 0 27.2533 0 24.064Z" fill="black"/>
<path d="M22.7567 27.836C22.7567 25.904 23.3854 24.3553 24.6427 23.19C25.9 22.0247 27.5254 21.2887 29.5187 20.982L35.0847 20.154C36.2194 20.0007 36.7867 19.464 36.7867 18.544C36.7867 17.6853 36.4494 16.98 35.7747 16.428C35.1307 15.876 34.1954 15.6 32.9687 15.6C31.6807 15.6 30.6534 15.9527 29.8867 16.658C29.1507 17.3633 28.7367 18.2373 28.6447 19.28L23.2167 18.13C23.4314 16.1673 24.3974 14.4347 26.1147 12.932C27.832 11.4293 30.1014 10.678 32.9227 10.678C36.296 10.678 38.78 11.4907 40.3747 13.116C41.9694 14.7107 42.7667 16.7653 42.7667 19.28V30.412C42.7667 31.7613 42.8587 32.9573 43.0427 34H37.4307C37.2774 33.3253 37.2007 32.4207 37.2007 31.286C35.7594 33.5247 33.536 34.644 30.5307 34.644C28.2 34.644 26.314 33.9693 24.8727 32.62C23.462 31.2707 22.7567 29.676 22.7567 27.836ZM31.8187 30.09C33.26 30.09 34.4407 29.6913 35.3607 28.894C36.3114 28.066 36.7867 26.7167 36.7867 24.846V23.834L31.6807 24.616C29.81 24.892 28.8747 25.8427 28.8747 27.468C28.8747 28.204 29.1354 28.8327 29.6567 29.354C30.178 29.8447 30.8987 30.09 31.8187 30.09Z" fill="black"/>
<path d="M66.7377 0.695984V29.906C66.7377 31.4087 66.7991 32.7733 66.9217 34H61.0797C60.9264 33.2333 60.8497 32.3593 60.8497 31.378C60.3284 32.3287 59.5004 33.0953 58.3657 33.678C57.2617 34.2607 55.9737 34.552 54.5017 34.552C51.2817 34.552 48.6291 33.4327 46.5437 31.194C44.4891 28.9247 43.4617 26.0727 43.4617 22.638C43.4617 19.2953 44.4737 16.4893 46.4977 14.22C48.5524 11.9507 51.1591 10.816 54.3177 10.816C57.5684 10.816 59.6997 11.7513 60.7117 13.622V0.695984H66.7377ZM49.6257 22.638C49.6257 24.6313 50.1471 26.2107 51.1897 27.376C52.2324 28.5107 53.5817 29.078 55.2377 29.078C56.8631 29.078 58.1971 28.4953 59.2397 27.33C60.2824 26.1647 60.8037 24.5853 60.8037 22.592C60.8037 20.6293 60.2824 19.096 59.2397 17.992C58.1971 16.8573 56.8631 16.29 55.2377 16.29C53.6124 16.29 52.2631 16.8573 51.1897 17.992C50.1471 19.1267 49.6257 20.6753 49.6257 22.638Z" fill="black"/>
<path d="M75.7667 27.422C76.9013 28.5567 78.266 29.124 79.8607 29.124C81.4553 29.124 82.8047 28.5567 83.9087 27.422C85.0433 26.2873 85.6107 24.708 85.6107 22.684C85.6107 20.66 85.0433 19.0807 83.9087 17.946C82.8047 16.8113 81.4553 16.244 79.8607 16.244C78.266 16.244 76.9013 16.8113 75.7667 17.946C74.6627 19.0807 74.1107 20.66 74.1107 22.684C74.1107 24.708 74.6627 26.2873 75.7667 27.422ZM71.3507 14.082C73.62 11.8127 76.4567 10.678 79.8607 10.678C83.2647 10.678 86.086 11.8127 88.3247 14.082C90.594 16.3513 91.7287 19.2187 91.7287 22.684C91.7287 26.1493 90.594 29.0167 88.3247 31.286C86.086 33.5553 83.2647 34.69 79.8607 34.69C76.4567 34.69 73.62 33.5553 71.3507 31.286C69.112 29.0167 67.9927 26.1493 67.9927 22.684C67.9927 19.2187 69.112 16.3513 71.3507 14.082Z" fill="black"/>
<path d="M98.95 27.422C100.085 28.5567 101.449 29.124 103.044 29.124C104.639 29.124 105.988 28.5567 107.092 27.422C108.227 26.2873 108.794 24.708 108.794 22.684C108.794 20.66 108.227 19.0807 107.092 17.946C105.988 16.8113 104.639 16.244 103.044 16.244C101.449 16.244 100.085 16.8113 98.95 17.946C97.846 19.0807 97.294 20.66 97.294 22.684C97.294 24.708 97.846 26.2873 98.95 27.422ZM94.534 14.082C96.8033 11.8127 99.64 10.678 103.044 10.678C106.448 10.678 109.269 11.8127 111.508 14.082C113.777 16.3513 114.912 19.2187 114.912 22.684C114.912 26.1493 113.777 29.0167 111.508 31.286C109.269 33.5553 106.448 34.69 103.044 34.69C99.64 34.69 96.8033 33.5553 94.534 31.286C92.2953 29.0167 91.1759 26.1493 91.1759 22.684C91.1759 19.2187 92.2953 16.3513 94.534 14.082Z" fill="black"/>
</svg>
